# xmcd
#
# Track frame offsets:
#	150
#	6934
#	12064
#	20401
#	28697
#	31474
#	38130
#	45705
#	53081
#	65235
#	76623
#	80536
#	84837
#	90972
#	95340
#	102459
#	110365
#	116434
#	130686
#	136568
#	142488
#	147377
#	149672
#	154524
#	161010
#	170462
#	174107
#	180528
#	183474
#	188426
#	191644
#	196729
#	205489
#	211579
#
# Disc length: 2896 seconds
#
# Revision: 0
# Processed by: cddbd v1.5.2PL0 Copyright (c) Steve Scherf et al.
# Submitted via: EasyCDDAExtractor 15.2.0.1
#
DISCID=be0b4e22
DTITLE=Mensagens
DYEAR=1900
DGENRE=
TTITLE0=O opinista
TTITLE1=O amigo
TTITLE2=A aguia
TTITLE3=A embalagem
TTITLE4=A grandeza de Deus
TTITLE5=A resposta de Deus
TTITLE6=A borboleta
TTITLE7=A cadeira
TTITLE8=Mais um chance
TTITLE9=Um copo de leite
TTITLE10=A espera
TTITLE11=A existencia de Deus
TTITLE12=Herois da oração
TTITLE13=Hospital do Senhor
TTITLE14=A idolatria
TTITLE15=A janela
TTITLE16=Tudo e força, Jesus e poder
TTITLE17=O leilão da alma
TTITLE18=Mãos que fazem a diferença
TTITLE19=As maravilhas do mundo
TTITLE20=A melhor noticia
TTITLE21=O maior homem da historia
TTITLE22=O preço da vida
TTITLE23=Os passsos de Jesus
TTITLE24=A ponte
TTITLE25=A porta do coração
TTITLE26=A presença do Senhor
TTITLE27=Quem e este que resolve os problemas
TTITLE28=Sendo rico, se fez pobre
TTITLE29=Só a cruz era dele
TTITLE30=Sonhei com Deus
TTITLE31=As tres arvores
TTITLE32=Um pai nosso
TTITLE33=Visão de livina
EXTD=
EXTT0=
EXTT1=
EXTT2=
EXTT3=
EXTT4=
EXTT5=
EXTT6=
EXTT7=
EXTT8=
EXTT9=
EXTT10=
EXTT11=
EXTT12=
EXTT13=
EXTT14=
EXTT15=
EXTT16=
EXTT17=
EXTT18=
EXTT19=
EXTT20=
EXTT21=
EXTT22=
EXTT23=
EXTT24=
EXTT25=
EXTT26=
EXTT27=
EXTT28=
EXTT29=
EXTT30=
EXTT31=
EXTT32=
EXTT33=
PLAYORDER=
